<mxfile host="app.diagrams.net" modified="2021-11-19T10:10:46.776Z" agent="5.0 (Macintosh; Intel Mac OS X 10_15_7) AppleWebKit/605.1.15 (KHTML, like Gecko) Version/14.1.2 Safari/605.1.15" etag="-VDDCUD7znxDht481Ijf" version="15.8.2" type="github">
  <diagram id="d-orxMP7u0uSfBueZLpv" name="Page-1">
    <mxGraphModel dx="540" dy="354" grid="1" gridSize="10" guides="1" tooltips="1" connect="1" arrows="1" fold="1" page="1" pageScale="1" pageWidth="1200" pageHeight="1920" math="0" shadow="0">
      <root>
        <mxCell id="0" />
        <mxCell id="1" parent="0" />
      </root>
    </mxGraphModel>
  </diagram>
</mxfile>
